<svg xmlns="http://www.w3.org/2000/svg" viewBox="0 0 1200 760" role="img" aria-label="Adventure fallback image">
  <defs>
    <linearGradient id="bg" x1="0" y1="0" x2="1" y2="1">
      <stop offset="0%" stop-color="#f4efe2"/>
      <stop offset="52%" stop-color="#d7e5d9"/>
      <stop offset="100%" stop-color="#b8d0c1"/>
    </linearGradient>
    <radialGradient id="sun" cx="78%" cy="22%" r="30%">
      <stop offset="0%" stop-color="#efd36d" stop-opacity="0.95"/>
      <stop offset="100%" stop-color="#efd36d" stop-opacity="0"/>
    </radialGradient>
    <filter id="shadow" x="-20%" y="-20%" width="140%" height="140%">
      <feDropShadow dx="0" dy="18" stdDeviation="18" flood-color="#0d1f16" flood-opacity="0.22"/>
    </filter>
  </defs>
  <rect width="1200" height="760" fill="url(#bg)"/>
  <rect width="1200" height="760" fill="url(#sun)"/>
  <path d="M0 590 C160 480 300 515 440 430 C610 326 720 406 880 315 C1030 230 1125 280 1200 220 L1200 760 L0 760 Z" fill="#234d38" opacity="0.88"/>
  <path d="M0 650 C190 550 300 615 500 510 C700 408 820 500 1010 405 C1110 356 1164 362 1200 338 L1200 760 L0 760 Z" fill="#0d1f16" opacity="0.78"/>
  <g filter="url(#shadow)">
    <rect x="88" y="92" width="560" height="230" rx="34" fill="#fffaf0" opacity="0.91"/>
    <text x="132" y="185" font-family="Georgia, serif" font-size="72" font-weight="700" fill="#1a3a2a">Adventure</text>
    <text x="136" y="252" font-family="Arial, sans-serif" font-size="34" font-weight="600" letter-spacing="4" fill="#c8561a">OUTDOOR DESTINATION</text>
  </g>
</svg>
